<svg viewBox="0 0 800 1000" xmlns="http://www.w3.org/2000/svg">
  <g class="body-outline" stroke-width=".26">
    <path d="m235 39c-8.2 0.72-17 4-23 9.7-7.3 7.1-11 18-13 28-0.93 4.9-0.36 4.6 0.93 15 0.18 1.4-2.9 0.3-4.2 0.93-2 0.96-4.4 2.1-5.1 4.2-1.7 5.7 3 12 5.1 17 1.2 3.2 1.5 7.2 4.2 9.3 4.4 1.1 3.7 2.5 4.6 5.1 1.6 4.5 3.6 8.9 6 13 1.6 2.6 4.7 4.4 5.6 7.4 1.2 4.3 0.96 9.6-1.4 13-4.1 6.8-13 9.5-20 13-13 6.5-29 7.9-42 14-7.3 3.5-16 6.5-20 13-6.3 8.5-6.9 20-8.3 31-0.84 6.3 0.55 13 0 19-0.85 9.7-4.4 19-5.1 29-0.82 11 1.8 22 0.93 33-0.86 11-3.9 22-6 32-2.4 13-5.8 25-7.4 37-2.6 21-2.7 41-3.2 62-1.1 41-19 86-0.46 122 0.61 1.2 2.1 1.7 3.2 2.3 4.6 2.4 9.8 6.7 15 5.1 1.8-0.58 3-2.8 3.2-4.6 1.9-12-11-23-11-36 9.6e-4 -2.6-0.19-6.7 2.3-7.4 2.8-0.76 5.4 3.3 6.5 6 2 5-3.5 11-0.93 16 0.84 1.6 2.9 3.1 4.6 2.8 3.5-0.65 5.4-5 6.5-8.3 2.4-7.2 0.57-15-0.46-23-1.8-13-11-26-10-39 0.77-18 13-34 18-51 4.8-17 8.9-35 11-53 0.71-7.1-0.96-14 0-21 1.6-11 7-22 9.3-33 1.8-8.8-4.4-22 3.2-27 0.82-0.52 2.2 0.14 2.8 0.93 18 24 1.5 60 1.9 89 0.056 5.4 0.46 11 0 16-0.93 11-3.7 21-5.6 32-1.5 8.8-3.7 18-4.6 26-1.6 14-0.94 29-1.9 43-1 16-3.5 33-4.2 49-0.75 20-0.95 39 0.46 59 1.2 17 7.7 33 6.9 50-0.21 4.9-2.6 9.5-3.2 14-2.6 19-3.2 38-2.8 57 0.32 15 2.6 31 4.2 46 1.4 13 2.6 27 4.6 40 1.9 12 6.4 24 6.9 36 0.57 13 0.19 26-3.7 37-2.8 8.7-7.6 17-14 24-2.5 2.7-6.4 3.7-9.3 6-2.4 1.9-6.1 3.4-6.5 6.5-0.33 2.7 1.8 5.6 4.2 6.9 15 8.7 36 6.3 52 0.46 3.2-1.1 6.6-3.3 7.9-6.5 1.9-4.9-1.7-10-2.3-16-0.96-8.9-2.1-18-1.9-27 0.1-3.7 1.6-7.4 1.4-11-0.2-4.3-2.7-8.2-2.8-12-0.49-20 6.2-40 10-59 3.4-17 10-33 12-50 1.8-20-1.9-39-2.8-59-0.31-6.6-1.4-13-0.93-20 1.7-21 10-42 13-63 3.1-23-2-46 5.1-68 1.1-3.3 2.1-9 5.6-8.8 3.9 0.23 4 6.9 5.1 11 5.3 19 3 39 5.6 59 1.9 14 4.4 29 7.4 43 1.6 7.5 4.8 15 5.6 22 0.96 10-1.2 21-1.9 31-0.92 15-3 31-2.8 46 0.12 8.8 0.96 18 2.3 26 2.7 17 7.9 34 12 51 2.9 14 8.7 27 8.3 41-0.14 4.8-3.6 9.1-3.7 14-0.22 7.1 4.2 14 4.2 21 0 8.7-5.3 17-5.1 25 0.11 3.7-0.12 8.4 2.8 11 14 11 38 8.2 55 0.46 2.2-1 3.8-3.3 4.6-5.6 0.68-1.9 0.8-4.2 0-6-3.3-7.5-13-10-18-17-4.9-5.8-10-12-12-19-2.6-7.8-1.7-16-1.4-25 0.75-20 5.8-39 7.9-59 3.2-31 7-62 6.9-93-0.014-14-1-28-3.2-42-0.62-3.9-2.5-7.6-2.8-12-1.1-20 5.7-39 6.9-58 1.5-24 1.7-48 0.46-73-0.65-13-3.5-26-4.2-38-0.71-13 1.4-26 0-39-1.9-18-9.5-36-12-54-1.6-14-0.78-28-0.46-43 0.25-11 1.2-22 1.9-33 0.46-8.3-6.2-22 1.4-25 0.9-0.4 1.9 0.97 2.3 1.9 3 6.1-0.49 14 0.46 20 1.4 10 5.8 20 7.9 30 4.7 23 4.6 47 10 70 4.1 17 14 32 17 50 1.8 9.6 2.3 19 1.4 29-0.69 7-3.8 13-5.1 20-1.7 8.9-5.7 18-3.7 27 0.75 3.3 2.4 7.2 5.6 8.3 1.8 0.63 4.3-0.35 5.6-1.9 4.5-5.4-2.7-16 2.8-21 1.3-1.1 3.9-0.74 5.1 0.46 2.4 2.4 1.3 6.8 0.93 10-1.2 10-10 19-9.7 29 0.12 1.7 0.69 4 2.3 4.6 5.5 2 12-3.4 16-6.9 1.6-1.2 3.1-2.8 3.7-4.6 17-48 1.2-102-1.4-153-0.76-15-1.1-30-4.2-44-2.3-11-8.7-21-11-32-2.3-13-0.3-27-1.4-40-1.1-13-4.2-26-5.1-39-0.66-10 2.4-21 0-31-2.8-12-7-24-16-32-11-8.7-27-6.1-39-11-8.2-3.2-16-8.1-24-12-4.1-2.1-9.2-2.8-12-6-0.49-0.48-0.73-1.2-0.93-1.9-0.72-2.4-1.4-5-0.93-7.4 0.99-4.7 5.4-7.9 7.4-12 2.4-5.2 2.5-12 5.6-16 0.69-1.1 1.8-1.9 2.8-2.8 1.3-1.1 3.1-1.5 4.2-2.8 4.3-5.6 7.2-13 6.9-20-0.066-1.8-0.83-3.8-2.2-5.1-1.1-1-3.4-0.2-4.3-1.4-2-2.6-0.04-6.5-0.46-9.7-0.95-7.2-1.1-15-4.6-21-4.3-7.7-11-14-19-19-4.2-2.3-9.2-3.7-14-3.2z"/>
    <path d="m566 40c8.2 0.72 17 4 23 9.7 7.3 7.1 11 18 13 28 0.93 4.9 0.36 4.6-0.93 15-0.18 1.4 2.9 0.3 4.2 0.93 2 0.96 4.4 2.1 5.1 4.2 1.7 5.7-3 12-5.1 17-1.2 3.2-1.5 7.2-4.2 9.3-4.4 1.1-3.7 2.5-4.6 5.1-1.6 4.5-3.6 8.9-6 13-1.6 2.6-4.7 4.4-5.6 7.4-1.2 4.3-0.96 9.6 1.4 13 4.1 6.8 13 9.5 20 13 13 6.5 29 7.9 42 14 7.3 3.5 16 6.5 20 13 6.3 8.5 6.9 20 8.3 31 0.84 6.3-0.55 13 0 19 0.85 9.7 4.4 19 5.1 29 0.82 11-1.8 22-0.93 33 0.86 11 3.9 22 6 32 2.4 13 5.8 25 7.4 37 2.6 21 2.7 41 3.2 62 1.1 41 19 86 0.46 122-0.61 1.2-2.1 1.7-3.2 2.3-4.6 2.4-9.8 6.7-15 5.1-1.8-0.58-3-2.8-3.2-4.6-1.9-12 11-23 11-36-9.6e-4 -2.6 0.19-6.7-2.3-7.4-2.8-0.76-5.4 3.3-6.5 6-2 5 3.5 11 0.93 16-0.84 1.6-2.9 3.1-4.6 2.8-3.5-0.65-5.4-5-6.5-8.3-2.4-7.2-0.57-15 0.46-23 1.8-13 11-26 10-39-0.77-18-13-34-18-51-4.8-17-8.9-35-11-53-0.71-7.1 0.96-14 0-21-1.6-11-7-22-9.3-33-1.8-8.8 4.4-22-3.2-27-0.82-0.52-2.2 0.14-2.8 0.93-18 24-1.5 60-1.9 89-0.056 5.4-0.46 11 0 16 0.93 11 3.7 21 5.6 32 1.5 8.8 3.7 18 4.6 26 1.6 14 0.94 29 1.9 43 1 16 3.5 33 4.2 49 0.75 20 0.95 39-0.46 59-1.2 17-7.7 33-6.9 50 0.21 4.9 2.6 9.5 3.2 14 2.6 19 3.2 38 2.8 57-0.32 15-2.6 31-4.2 46-1.4 13-2.6 27-4.6 40-1.9 12-6.4 24-6.9 36-0.57 13-0.19 26 3.7 37 2.8 8.7 7.6 17 14 24 2.5 2.7 6.4 3.7 9.3 6 2.4 1.9 6.1 3.4 6.5 6.5 0.33 2.7-1.8 5.6-4.2 6.9-15 8.7-36 6.3-52 0.46-3.2-1.1-6.6-3.3-7.9-6.5-1.9-4.9 1.7-10 2.3-16 0.96-8.9 2.1-18 1.9-27-0.1-3.7-1.6-7.4-1.4-11 0.2-4.3 2.7-8.2 2.8-12 0.49-20-6.2-40-10-59-3.4-17-10-33-12-50-1.8-20 1.9-39 2.8-59 0.31-6.6 1.4-13 0.93-20-1.7-21-10-42-13-63-3.1-23 2-46-5.1-68-1.1-3.3-2.1-9-5.6-8.8-3.9 0.23-4 6.9-5.1 11-5.3 19-3 39-5.6 59-1.9 14-4.4 29-7.4 43-1.6 7.5-4.8 15-5.6 22-0.96 10 1.2 21 1.9 31 0.92 15 3 31 2.8 46-0.12 8.8-0.96 18-2.3 26-2.7 17-7.9 34-12 51-2.9 14-8.7 27-8.3 41 0.14 4.8 3.6 9.1 3.7 14 0.22 7.1-4.2 14-4.2 21 0 8.7 5.3 17 5.1 25-0.11 3.7 0.12 8.4-2.8 11-14 11-38 8.2-55 0.46-2.2-1-3.8-3.3-4.6-5.6-0.68-1.9-0.8-4.2 0-6 3.3-7.5 13-10 18-17 4.9-5.8 10-12 12-19 2.6-7.8 1.7-16 1.4-25-0.75-20-5.8-39-7.9-59-3.2-31-7-62-6.9-93 0.014-14 1-28 3.2-42 0.62-3.9 2.5-7.6 2.8-12 1.1-20-5.7-39-6.9-58-1.5-24-1.7-48-0.46-73 0.65-13 3.5-26 4.2-38 0.71-13-1.4-26 0-39 1.9-18 9.5-36 12-54 1.6-14 0.78-28 0.46-43-0.25-11-1.2-22-1.9-33-0.46-8.3 6.2-22-1.4-25-0.9-0.4-1.9 0.97-2.3 1.9-3 6.1 0.49 14-0.46 20-1.4 10-5.8 20-7.9 30-4.7 23-4.6 47-10 70-4.1 17-14 32-17 50-1.8 9.6-2.3 19-1.4 29 0.69 7 3.8 13 5.1 20 1.7 8.9 5.7 18 3.7 27-0.75 3.3-2.4 7.2-5.6 8.3-1.8 0.63-4.3-0.35-5.6-1.9-4.5-5.4 2.7-16-2.8-21-1.3-1.1-3.9-0.74-5.1 0.46-2.4 2.4-1.3 6.8-0.93 10 1.2 10 10 19 9.7 29-0.12 1.7-0.69 4-2.3 4.6-5.5 2-12-3.4-16-6.9-1.6-1.2-3.1-2.8-3.7-4.6-17-48-1.2-102 1.4-153 0.76-15 1.1-30 4.2-44 2.3-11 8.7-21 11-32 2.3-13 0.3-27 1.4-40 1.1-13 4.2-26 5.1-39 0.66-10-2.4-21 0-31 2.8-12 7-24 16-32 11-8.7 27-6.1 39-11 8.2-3.2 16-8.1 24-12 4.1-2.1 9.2-2.8 12-6 0.49-0.48 0.73-1.2 0.93-1.9 0.72-2.4 1.4-5 0.93-7.4-0.99-4.7-5.4-7.9-7.4-12-2.4-5.2-2.5-12-5.6-16-0.69-1.1-1.8-1.9-2.8-2.8-1.3-1.1-3.1-1.5-4.2-2.8-4.3-5.6-7.2-13-6.9-20 0.066-1.8 0.83-3.8 2.2-5.1 1.1-1 3.4-0.2 4.3-1.4 2-2.6 0.04-6.5 0.46-9.7 0.95-7.2 1.1-15 4.6-21 4.3-7.7 11-14 19-19 4.2-2.3 9.2-3.7 14-3.2z"/>
  </g>
  <g class="muscles" stroke-width=".26">
    <path data-muscle="Chest" d="m245 227c7.2-6.6 17-11 27-13 6.6-1.5 14-1.6 20 0.33 5.2 1.5 11 4.1 14 8.5 4.4 6.3 4.6 15 4.6 23-9e-3 9.2-1.6 19-5.6 27-2.3 4.8-5.8 9.3-10 12-4.6 3.4-10 5.7-16 6.5-7.5 1.1-15-0.18-23-2.3-3.7-1.1-8-2.2-10-5.2-4.7-5.8-5-14-5.6-22-0.82-11-0.15-22 3.3-32 0.4-1.2 1-2.4 2-3.3z"/>
    <path data-muscle="Chest" d="m226 227c-7.2-6.6-17-11-27-13-6.6-1.5-14-1.6-20 0.33-5.2 1.5-11 4.1-14 8.5-4.4 6.3-4.6 15-4.6 23 9e-3 9.2 1.6 19 5.6 27 2.3 4.8 5.8 9.3 10 12 4.6 3.4 10 5.7 16 6.5 7.5 1.1 15-0.18 23-2.3 3.7-1.1 8-2.2 10-5.2 4.7-5.8 5-14 5.6-22 0.82-11 0.15-22-3.3-32-0.4-1.2-1-2.4-2-3.3z"/>
    <path data-muscle="Delts" d="m290 191c6.7 1.6 13 6.2 17 11 3.9 4.6 7.6 10 7.5 16-0.012 0.73-0.27 1.8-0.98 2-5.8 1.3-9-8-14-11-5.1-3.1-12-3.4-16-7.5-1.2-1.2-2.3-2.9-2.3-4.6 0-2.2 1.1-4.6 2.9-5.9 1.6-1.1 4-1.1 5.9-0.65z"/>
    <path data-muscle="Delts" d="m316 192c5.2 2.8 11 5.5 15 10 4.7 5.8 7.3 13 8.5 21 0.84 5.1 1.8 11-0.98 15-1.2 1.9-3.7 3.6-5.9 3.3-2.5-0.32-4.1-3.2-5.6-5.2-2.8-3.9-4.4-8.5-6.2-13-1.5-3.6-2.2-7.4-3.9-11-1.6-3.2-3.7-6-5.9-8.8-1.6-2-3.3-3.9-5.1-5.7-2-2-5-3.3-6.4-5.8-0.47-0.82-1.2-2-0.57-2.8 2.1-2.6 6.7-0.84 9.9-0.25 2.6 0.48 5 1.8 7.4 3z"/>
    <path data-muscle="Delts" d="m182 191c-6.7 1.6-13 6.2-17 11-3.9 4.6-7.6 10-7.5 16 0.012 0.73 0.27 1.8 0.98 2 5.8 1.3 9-8 14-11 5.1-3.1 12-3.4 16-7.5 1.2-1.2 2.3-2.9 2.3-4.6 0-2.2-1.1-4.6-2.9-5.9-1.6-1.1-4-1.1-5.9-0.65z"/>
    <path data-muscle="Delts" d="m155 191c-5.2 2.8-11 5.5-15 10-4.7 5.8-7.3 13-8.5 21-0.84 5.1-1.8 11 0.98 15 1.2 1.9 3.7 3.6 5.9 3.3 2.5-0.32 4.1-3.2 5.6-5.2 2.8-3.9 4.4-8.5 6.2-13 1.5-3.6 2.2-7.4 3.9-11 1.6-3.2 3.7-6 5.9-8.8 1.6-2 3.3-3.9 5.1-5.7 2-2 5-3.3 6.4-5.8 0.47-0.82 1.2-2 0.57-2.8-2.1-2.6-6.7-0.84-9.9-0.25-2.6 0.48-5 1.8-7.4 3z"/>
    <path data-muscle="Delts" d="m628 192c7.9 0.68 16 2.2 23 6.9 6.6 5 11 13 13 21 1.8 5 2.5 11 1.6 16-0.48 2.9-1.1 6.7-3.7 8.1-1.6 0.91-4.1 0.46-5.6-0.69-4.1-3.2-3.6-9.8-5.6-15-2.2-5.4-3.8-11-6.9-16-3.3-5.2-7.8-9.6-12-14-2.3-2.3-8.3-3.2-7.4-6.2 0.35-1.2 2.5-0.57 3.7-0.46z"/>
    <path data-muscle="Delts" d="m625 202c2.9 1.1 5.2 3.3 7.4 5.4 2.9 2.8 5.5 6 7.6 9.5 2.5 4.3 5.1 8.9 5.4 14 0.045 0.69 0.18 1.8-0.49 2-2.7 0.67-3.5-4.3-5.5-6.3-3.6-3.5-7.6-6.6-12-9.7-4.2-3.2-10-4.3-13-8.9-0.84-1.5-1.3-3.7-0.29-5.1 0.95-1.3 3.1-1.2 4.7-1.3 2-0.18 4-0.16 5.8 0.53z"/>
    <path data-muscle="Delts" d="m495 192c-7.9 0.68-16 2.2-23 6.9-6.6 5-11 13-13 21-1.8 5-2.5 11-1.6 16 0.48 2.9 1.1 6.7 3.7 8.1 1.6 0.91 4.1 0.46 5.6-0.69 4.1-3.2 3.6-9.8 5.6-15 2.2-5.4 3.8-11 6.9-16 3.3-5.2 7.8-9.6 12-14 2.3-2.3 8.3-3.2 7.4-6.2-0.35-1.2-2.5-0.57-3.7-0.46z"/>
    <path data-muscle="Delts" d="m499 202c-2.9 1.1-5.2 3.3-7.4 5.4-2.9 2.8-5.5 6-7.6 9.5-2.5 4.3-5.1 8.9-5.4 14-0.045 0.69-0.18 1.8 0.49 2 2.7 0.67 3.5-4.3 5.5-6.3 3.6-3.5 7.6-6.6 12-9.7 4.2-3.2 10-4.3 13-8.9 0.84-1.5 1.3-3.7 0.29-5.1-0.95-1.3-3.1-1.2-4.7-1.3-2-0.18-4-0.16-5.8 0.53z"/>
    <path data-muscle="Triceps" d="m651 252c2.6 0.45 5.3 1.6 7.2 3.6 5.8 6.2 8.3 15 10 24 1.5 7.3 0.46 15 0 22-0.41 6.6-0.57 13-2.4 20-0.95 3.2-1.6 7.2-4.4 9.1-1.9 1.3-5.1 1.9-7.1 0.58-3.1-2.1-2.3-7.1-3.2-11-3.2-12-6.4-25-7.8-38-0.85-8.1-1.6-16-0.12-24 0.37-2 0.6-4.4 2.2-5.7 1.5-1.2 3.8-1 5.7-0.69z"/>
    <path data-muscle="Triceps" d="m474 251c-2.6 0.45-5.3 1.6-7.2 3.6-5.8 6.2-8.3 15-10 24-1.5 7.3-0.46 15 0 22 0.41 6.6 0.57 13 2.4 20 0.95 3.2 1.6 7.2 4.4 9.1 1.9 1.3 5.1 1.9 7.1 0.58 3.1-2.1 2.3-7.1 3.2-11 3.2-12 6.4-25 7.8-38 0.85-8.1 1.6-16 0.12-24-0.37-2-0.6-4.4-2.2-5.7-1.5-1.2-3.8-1-5.7-0.69z"/>
    <path data-muscle="Hamstrings" d="m518 562c3 3.7 1.9 9.4 2.3 14 1.4 18 1.5 35 0.12 53-0.69 8.7-2.3 17-4.2 26-0.46 2.1-0.13 4.8-1.7 6.2-1.6 1.4-4.2 1.7-6.2 1-4.4-1.5-7.2-6-9.5-10-4.8-8.5-5.8-19-7.6-28-2.8-15-4.4-30-5.1-45-0.33-7.2-2.1-15 0.46-22 0.8-2.1 2.2-4.6 4.4-5.2 1.8-0.54 3.6 1 5.4 1.6 7.3 2.5 17 2.1 22 8.1z"/>
    <path data-muscle="Hamstrings" d="m534 558c3.5-0.67 8.3-1.4 11 1.3 5.8 6.5 0.9 17 0.23 26-0.66 8.5-2.1 17-4.2 25-1.9 7.5-5 15-7.5 22-0.91 2.6-0.034 7.9-2.8 7.8-3.2-0.13-2-6-2.4-9.1-1.8-12-1.6-24-1.5-36 0.077-8.4 0.29-17 1.5-25 0.51-3.5 0.28-7.5 2.4-10 0.8-1 2.2-1.6 3.5-1.9z"/>
    <path data-muscle="Hamstrings" d="m591 558c-3.5-0.67-8.3-1.4-11 1.3-5.8 6.5-0.9 17-0.23 26 0.66 8.5 2.1 17 4.2 25 1.9 7.5 5 15 7.5 22 0.91 2.6 0.034 7.9 2.8 7.8 3.2-0.13 2-6 2.4-9.1 1.8-12 1.6-24 1.5-36-0.077-8.4-0.29-17-1.5-25-0.51-3.5-0.28-7.5-2.4-10-0.8-1-2.2-1.6-3.5-1.9z"/>
    <path data-muscle="Hamstrings" d="m607 561c-3 3.7-1.9 9.4-2.3 14-1.4 18-1.5 35-0.12 53 0.69 8.7 2.3 17 4.2 26 0.46 2.1 0.13 4.8 1.7 6.2 1.6 1.4 4.2 1.7 6.2 1 4.4-1.5 7.2-6 9.5-10 4.8-8.5 5.8-19 7.6-28 2.8-15 4.4-30 5.1-45 0.33-7.2 2.1-15-0.46-22-0.8-2.1-2.2-4.6-4.4-5.2-1.8-0.54-3.6 1-5.4 1.6-7.3 2.5-17 2.1-22 8.1z"/>
    <path data-muscle="Glutes" d="m538 448c7.4 3 13 10 16 18 6.3 14 5.4 31 3.7 47-0.91 8.4-1.4 18-7.4 24-5.9 5.8-16 5.6-24 6.9-6.2 1-13 3.4-19 0.93-5.1-2.1-8.3-7.5-11-12-2.4-4-4-8.6-4.6-13-1-7.8 0.37-16 1.9-23 2.2-11 4.2-23 10-33 3.5-5.5 8.4-11 14-13 5.9-2.5 13-3.3 19-0.93z"/>
    <path data-muscle="Glutes" d="m588 447c-7.4 3-13 10-16 18-6.3 14-5.4 31-3.7 47 0.91 8.4 1.4 18 7.4 24 5.9 5.8 16 5.6 24 6.9 6.2 1 13 3.4 19 0.93 5.1-2.1 8.3-7.5 11-12 2.4-4 4-8.6 4.6-13 1-7.8-0.37-16-1.9-23-2.2-11-4.2-23-10-33-3.5-5.5-8.4-11-14-13-5.9-2.5-13-3.3-19-0.93z"/>
    <path data-muscle="Calves" d="m516 701c1.8-0.87 4.3-1 6 0 4.9 2.8 6.8 9.2 8.6 15 3.4 10 3.8 21 3.5 32-0.33 9.6-2.7 19-5.1 28-1.6 6.2-2.1 13-6.2 18-1.6 1.9-4.4 4.4-6.7 3.5-5.7-2.4-4.4-12-5.6-18-2.9-15-2.5-31-3.5-47-0.4-6.6-2.9-13-0.93-20 1.6-5.1 5.2-10 10-12z"/>
    <path data-muscle="Calves" d="m609 700c-1.8-0.87-4.3-1-6 0-4.9 2.8-6.8 9.2-8.6 15-3.4 10-3.8 21-3.5 32 0.33 9.6 2.7 19 5.1 28 1.6 6.2 2.1 13 6.2 18 1.6 1.9 4.4 4.4 6.7 3.5 5.7-2.4 4.4-12 5.6-18 2.9-15 2.5-31 3.5-47 0.4-6.6 2.9-13 0.93-20-1.6-5.1-5.2-10-10-12z"/>
    <path data-muscle="Calves" d="m497 719c4.7 5.7 0.98 15 1.9 22 1.1 9.1 3.4 18 4.2 27 0.45 5.4 0.66 11 0.23 16-0.28 3.6 0.9 8.3-1.9 11-1.5 1.3-4.4 1.2-6 0-5.7-4.2-4.9-13-6-20-1.4-8.3-1.1-17-0.93-25 0.14-7.3 0.34-15 1.6-22 0.59-3.3-0.16-8.1 2.8-9.7 1.3-0.7 3.2 0.047 4.2 1.2z"/>
    <path data-muscle="Calves" d="m628 718c-4.7 5.7-0.98 15-1.9 22-1.1 9.1-3.4 18-4.2 27-0.45 5.4-0.66 11-0.23 16 0.28 3.6-0.9 8.3 1.9 11 1.5 1.3 4.4 1.2 6 0 5.7-4.2 4.9-13 6-20 1.4-8.3 1.1-17 0.93-25-0.14-7.3-0.34-15-1.6-22-0.59-3.3 0.16-8.1-2.8-9.7-1.3-0.7-3.2 0.047-4.2 1.2z"/>
    <path data-muscle="Traps" d="m218 169c4.9 2.2 7.9 10 5.4 15-1.3 2.6-5.6 2-8.5 2.5-8.9 1.3-20 5.5-27 0.33-1.1-0.8-1.8-2.7-1.3-3.9 2.8-6.7 13-6.6 20-9.5 3.9-1.7 8-6.3 12-4.6z"/>
    <path data-muscle="Traps" d="m250 169c-4.9 2.2-7.9 10-5.4 15 1.3 2.6 5.6 2 8.5 2.5 8.9 1.3 20 5.5 27 0.33 1.1-0.8 1.8-2.7 1.3-3.9-2.8-6.7-13-6.6-20-9.5-3.9-1.7-8-6.3-12-4.6z"/>
    <path data-muscle="Biceps" d="m148 262c-2.9-1.2-6.5 0.24-9 2.1-1.8 1.4-2.3 3.9-3.4 5.9-1.8 3.6-3.7 7.2-4.9 11-1.7 5.5-2.8 11-3.2 17-0.41 5.2 0.18 10 0.46 16 0.24 4.3-0.2 8.7 1 13 0.97 3.2 2 7 4.9 8.8 1.8 1.1 4.5 0.99 6.5 0.23 1.6-0.59 2.8-2.1 3.7-3.5 2.1-3.1 2.9-6.9 4-10 1.3-4.2 2.4-8.4 3.1-13 1.1-6.6 1.5-13 1.7-20 0.21-6.6 1.5-13-0.46-20-0.82-2.6-2-5.9-4.5-6.9z"/>
    <path data-muscle="Biceps" d="m323 261c2.9-1.2 6.5 0.24 9 2.1 1.8 1.4 2.3 3.9 3.4 5.9 1.8 3.6 3.7 7.2 4.9 11 1.7 5.5 2.8 11 3.2 17 0.41 5.2-0.18 10-0.46 16-0.24 4.3 0.2 8.7-1 13-0.97 3.2-2 7-4.9 8.8-1.8 1.1-4.5 0.99-6.5 0.23-1.6-0.59-2.8-2.1-3.7-3.5-2.1-3.1-2.9-6.9-4-10-1.3-4.2-2.4-8.4-3.1-13-1.1-6.6-1.5-13-1.7-20-0.21-6.6-1.5-13 0.46-20 0.82-2.6 2-5.9 4.5-6.9z"/>
    <path data-muscle="Forearms" d="m131 358c2 0.93 4.3 1.6 5.7 3.3 2.7 3.2 3.7 7.6 4.1 12 0.54 6.2-1.5 12-2.9 18-2.5 10-5.9 21-9.8 31-2.4 6.1-3.9 13-8.2 18-0.68 0.77-1.7 2-2.6 1.6-5.6-2.1-4.2-11-4.9-17-1.3-12-0.13-24 2-35 1.4-7.5 4-15 6.9-22 1.5-3.8 1.6-9.5 5.4-11 1.5-0.58 3 0.97 4.4 1.6z"/>
    <path data-muscle="Forearms" d="m340 358c-2 0.93-4.3 1.6-5.7 3.3-2.7 3.2-3.7 7.6-4.1 12-0.54 6.2 1.5 12 2.9 18 2.5 10 5.9 21 9.8 31 2.4 6.1 3.9 13 8.2 18 0.68 0.77 1.7 2 2.6 1.6 5.6-2.1 4.2-11 4.9-17 1.3-12 0.13-24-2-35-1.4-7.5-4-15-6.9-22-1.5-3.8-1.6-9.5-5.4-11-1.5-0.58-3 0.97-4.4 1.6z"/>
    <path data-muscle="Quads" d="m172 486c2.5-0.64 4.5 2.8 6.1 4.9 9.8 14 13 31 18 47 5 17 9.4 34 12 51 1.7 13 2.2 27 1.3 41-0.64 9.6-0.81 20-4.7 28-2.7 5.9-6.2 13-12 15-4.8 1.9-11 0.87-15-2.1-4.3-3.1-5.6-9.1-7.2-14-4.2-13-5.3-27-6.5-40-2.1-22-2.1-44-1.8-66 0.23-15-0.73-30 2.6-45 1.7-7.3 1.4-19 8.7-21z"/>
    <path data-muscle="Quads" d="m299 487c-2.5-0.64-4.5 2.8-6.1 4.9-9.8 14-13 31-18 47-5 17-9.4 34-12 51-1.7 13-2.2 27-1.3 41 0.64 9.6 0.81 20 4.7 28 2.7 5.9 6.2 13 12 15 4.8 1.9 11 0.87 15-2.1 4.3-3.1 5.6-9.1 7.2-14 4.2-13 5.3-27 6.5-40 2.1-22 2.1-44 1.8-66-0.23-15 0.73-30-2.6-45-1.7-7.3-1.4-19-8.7-21z"/>
    <path data-muscle="Abs" d="m224 300-30 6.7-4.3 14 3.4 10 6.9 0.49 30-12 1.8-7.2-2.6-9z"/>
    <path data-muscle="Abs" d="m221 329-26 9.2-4.6 4.7v17l3.8 5.6 32-5.2 5.6-4.4-0.49-22-6.2-6.2z"/>
    <path data-muscle="Abs" d="m225 369-30 5.2-4.4 4.3 0.16 14 4.7 6.1 31 2.3s5.7-4.9 5.6-5.6c-0.16-0.65-0.16-22-0.16-22z"/>
    <path data-muscle="Abs" d="m247 300 30 6.7 4.3 14-3.4 10-6.9 0.49-30-12-1.8-7.2 2.6-9z"/>
    <path data-muscle="Abs" d="m250 329 26 9.2 4.6 4.7v17l-3.8 5.6-32-5.2-5.6-4.4 0.49-22 6.2-6.2z"/>
    <path data-muscle="Abs" d="m246 368 30 5.2 4.4 4.3-0.16 14-4.7 6.1-31 2.3s-5.7-4.9-5.6-5.6c0.16-0.65 0.16-22 0.16-22z"/>
    <path data-muscle="Back" d="m552 163c-4.8 0.28-5.3 8.2-9.2 11-8.2 6.3-18 10-28 13-2.8 0.76-6.3-0.78-8.5 0.98-1.5 1.2-2.5 3.6-2 5.4 0.46 1.8 2.8 2.3 4.2 3.5 2.6 2.2 5.8 3.8 7.7 6.6 6.2 9.4 7.3 21 10 32 3.8 15 4 30 9.2 45 3.2 8.7 8 17 13 25 1.3 1.9 2.3 5.2 4.6 5.2 1.7 0.018 3.2-2.1 3.4-3.8 6.9-48 3-94-0.16-139-0.14-2-2.4-4.4-4.4-4.3z"/>
    <path data-muscle="Back" d="m574 163c4.8 0.28 5.3 8.2 9.2 11 8.2 6.3 18 10 28 13 2.8 0.76 6.3-0.78 8.5 0.98 1.5 1.2 2.5 3.6 2 5.4-0.46 1.8-2.8 2.3-4.2 3.5-2.6 2.2-5.8 3.8-7.7 6.6-6.2 9.4-7.3 21-10 32-3.8 15-4 30-9.2 45-3.2 8.7-8 17-13 25-1.3 1.9-2.3 5.2-4.6 5.2-1.7 0.018-3.2-2.1-3.4-3.8-6.9-48-3-94 0.16-139 0.14-2 2.4-4.4 4.4-4.3z"/>
    <path data-muscle="Back" d="m509 217c14 9.8 14 32 14 50 0.073 2.5 0.47 6-1.6 7.4-4.8 3.1-12-0.43-17-3.3-2.2-1.3-3.8-3.5-5.1-5.7-4.6-7.7-9.1-16-9.2-25-0.037-3.4 1.6-6.7 3.3-9.7 2.8-4.9 6.2-10 11-13 1.2-0.61 3-1.1 4.1-0.33z"/>
    <path data-muscle="Back" d="m506 279c2.1-0.3 4.5 0.016 6.4 0.98 9.3 4.7 15 14 22 22 4.2 4.6 7.8 9.9 12 15 2.5 2.8 6 4.7 7.7 8 1.1 2.2 1.7 4.9 1.1 7.4-1.7 7.9-8.6 14-13 20-3.1 4.5-7.3 8.4-9.8 13-4.4 8.3-6.1 18-9.2 27-2.4 6.9-1.7 16-7.2 21-0.84 0.73-2.2 0.76-3.3 0.65-1.9-0.18-4.1-0.64-5.2-2.1-1.2-1.6-0.79-4-0.82-6.1-0.067-4.7 1.3-9.3 1.5-14 0.49-11 0.32-22-0.49-33-1.3-18-5.2-36-7.2-54-0.82-7.5-5.7-16-2-22 1.4-2.4 4.8-3.1 7.5-3.4z"/>
    <path data-muscle="Back" d="m615 217c-14 9.8-14 32-14 50-0.073 2.5-0.47 6 1.6 7.4 4.8 3.1 12-0.43 17-3.3 2.2-1.3 3.8-3.5 5.1-5.7 4.6-7.7 9.1-16 9.2-25 0.037-3.4-1.6-6.7-3.3-9.7-2.8-4.9-6.2-10-11-13-1.2-0.61-3-1.1-4.1-0.33z"/>
    <path data-muscle="Back" d="m619 280c-2.1-0.3-4.5 0.016-6.4 0.98-9.3 4.7-15 14-22 22-4.2 4.6-7.8 9.9-12 15-2.5 2.8-6 4.7-7.7 8-1.1 2.2-1.7 4.9-1.1 7.4 1.7 7.9 8.6 14 13 20 3.1 4.5 7.3 8.4 9.8 13 4.4 8.3 6.1 18 9.2 27 2.4 6.9 1.7 16 7.2 21 0.84 0.73 2.2 0.76 3.3 0.65 1.9-0.18 4.1-0.64 5.2-2.1 1.2-1.6 0.79-4 0.82-6.1 0.067-4.7-1.3-9.3-1.5-14-0.49-11-0.32-22 0.49-33 1.3-18 5.2-36 7.2-54 0.82-7.5 5.7-16 2-22-1.4-2.4-4.8-3.1-7.5-3.4z"/>
  </g>
</svg>
